<svg width="16" height="20" viewBox="0 0 16 20" fill="none" xmlns="http://www.w3.org/2000/svg">
<path fill-rule="evenodd" clip-rule="evenodd" d="M15.9397 10.99L15.9367 8.929C15.9367 1.335 14.7457 0 7.9707 0C1.19569 0 0.00469481 1.335 0.00469481 8.929L0.00169481 10.99C-0.00730519 16.615 -0.0113052 18.721 0.847695 19.58C1.12569 19.859 1.49469 20 1.94369 20C2.89869 20 3.96069 19.093 5.08569 18.132C6.08169 17.281 7.2107 16.317 7.9707 16.317C8.7307 16.317 9.85969 17.281 10.8557 18.132C11.9807 19.093 13.0427 20 13.9977 20C14.4467 20 14.8157 19.859 15.0937 19.58C15.9527 18.721 15.9487 16.615 15.9397 10.99Z" fill="#E21220"/>
<path d="M4.54297 7.96777H11.398C11.812 7.96777 12.148 7.63177 12.148 7.21777C12.148 6.80377 11.812 6.46777 11.398 6.46777H4.54297C4.12897 6.46777 3.79297 6.80377 3.79297 7.21777C3.79297 7.63177 4.12897 7.96777 4.54297 7.96777Z" fill="#212121"/>
</svg>
