<svg width="24" height="24" viewBox="0 0 24 24" fill="none" xmlns="http://www.w3.org/2000/svg">
<path fill-rule="evenodd" clip-rule="evenodd" d="M11.2116 11.2119L10.1646 14.5589L13.5106 13.5109L14.5586 10.1639L11.2116 11.2119ZM9.02057 16.4519C8.82457 16.4519 8.63257 16.3749 8.48957 16.2329C8.29257 16.0349 8.22057 15.7439 8.30457 15.4789L9.89757 10.3899C9.97057 10.1539 10.1546 9.97089 10.3886 9.89789L15.4776 8.30489C15.7446 8.21989 16.0346 8.29289 16.2326 8.48989C16.4296 8.68789 16.5016 8.97889 16.4176 9.24389L14.8256 14.3329C14.7526 14.5679 14.5676 14.7519 14.3336 14.8249L9.24457 16.4179C9.17057 16.4409 9.09457 16.4519 9.02057 16.4519Z" fill="#9E9E9E"/>
<mask id="mask0_1228_18725" style="mask-type:luminance" maskUnits="userSpaceOnUse" x="2" y="2" width="21" height="21">
<path fill-rule="evenodd" clip-rule="evenodd" d="M2 2H22.7218V22.7217H2V2Z" fill="white"/>
</mask>
<g mask="url(#mask0_1228_18725)">
<path fill-rule="evenodd" clip-rule="evenodd" d="M12.361 3.5C7.475 3.5 3.5 7.476 3.5 12.361C3.5 17.247 7.475 21.222 12.361 21.222C17.247 21.222 21.222 17.247 21.222 12.361C21.222 7.476 17.247 3.5 12.361 3.5ZM12.361 22.722C6.648 22.722 2 18.074 2 12.361C2 6.648 6.648 2 12.361 2C18.074 2 22.722 6.648 22.722 12.361C22.722 18.074 18.074 22.722 12.361 22.722Z" fill="#9E9E9E"/>
</g>
</svg>
