<svg width="21" height="22" viewBox="0 0 21 22" fill="none" xmlns="http://www.w3.org/2000/svg">
<mask id="mask0_5499_3438" style="mask-type:luminance" maskUnits="userSpaceOnUse" x="0" y="0" width="21" height="22">
<path fill-rule="evenodd" clip-rule="evenodd" d="M0 0H20.4998V21.505H0V0Z" fill="white"/>
</mask>
<g mask="url(#mask0_5499_3438)">
<path fill-rule="evenodd" clip-rule="evenodd" d="M11.7168 14.291C12.9208 14.291 13.9008 15.264 13.9008 16.46V19.536C13.9008 19.793 14.1068 19.999 14.3708 20.005H16.2768C17.7788 20.005 18.9998 18.799 18.9998 17.317V8.59301C18.9928 8.08301 18.7498 7.60301 18.3328 7.28401L11.7398 2.02601C10.8548 1.32501 9.61676 1.32501 8.72876 2.02801L2.18076 7.28201C1.74776 7.61101 1.50476 8.09101 1.49976 8.61001V17.317C1.49976 18.799 2.72076 20.005 4.22276 20.005H6.14676C6.41776 20.005 6.63776 19.79 6.63776 19.526C6.63776 19.468 6.64476 19.41 6.65676 19.355V16.46C6.65676 15.271 7.63076 14.299 8.82576 14.291H11.7168ZM16.2768 21.505H14.3528C13.2508 21.479 12.4008 20.614 12.4008 19.536V16.46C12.4008 16.091 12.0938 15.791 11.7168 15.791H8.83076C8.46176 15.793 8.15676 16.094 8.15676 16.46V19.526C8.15676 19.601 8.14676 19.673 8.12576 19.741C8.01776 20.731 7.17176 21.505 6.14676 21.505H4.22276C1.89376 21.505 -0.000244141 19.626 -0.000244141 17.317V8.60301C0.00975586 7.60901 0.467756 6.69901 1.25876 6.10001L7.79376 0.855006C9.23276 -0.284994 11.2378 -0.284994 12.6738 0.853006L19.2558 6.10301C20.0288 6.69201 20.4868 7.60001 20.4998 8.58201V17.317C20.4998 19.626 18.6058 21.505 16.2768 21.505Z" fill="#9E9E9E"/>
</g>
</svg>
